<svg version="1.1" xmlns="http://www.w3.org/2000/svg" viewBox="0 0 1096.2747192382812 489.01788330078125" width="1096.2747192382812" height="489.01788330078125">
  <!-- svg-source:excalidraw -->
  
  <defs>
    <style class="style-fonts">
      @font-face {
        font-family: "Virgil";
        src: url("https://excalidraw.com/Virgil.woff2");
      }
      @font-face {
        font-family: "Cascadia";
        src: url("https://excalidraw.com/Cascadia.woff2");
      }
    </style>
  </defs>
  <rect x="0" y="0" width="1096.2747192382812" height="489.01788330078125" fill="#ffffff"></rect><g stroke-linecap="round" transform="translate(10 120.84820556640625) rotate(0 102.04336547851562 92.08538818359375)"><path d="M31.54 26.09 C31.54 26.09, 31.54 26.09, 31.54 26.09 M31.54 26.09 C31.54 26.09, 31.54 26.09, 31.54 26.09 M12.67 53.53 C23.9 42.23, 32.76 32.14, 43.09 20.41 M11.86 55.47 C24.18 41.91, 35.18 27.3, 42.97 20.46 M9.25 62.63 C22.6 49.89, 32.22 36.48, 53.03 12.84 M9.37 63.78 C25.05 44.6, 41.84 26.47, 53.2 14.1 M5.39 73.4 C26.13 48.13, 46.25 24.61, 64.68 9.34 M8.07 72.13 C19.38 58.52, 31.17 46.95, 64.37 6.92 M6.01 81.34 C25.09 58.65, 41.87 39.44, 67.62 7.34 M4.08 80.7 C20.28 62.79, 34.9 46.66, 67.3 7.99 M0.43 92.36 C23.94 65.87, 42.73 44.17, 72.4 6.61 M1.04 90.12 C26.57 61.14, 51.1 34.13, 75.11 8.1 M5 94.32 C31.02 62.59, 56.87 28.89, 79.04 7.77 M2.18 95.05 C23.02 72.15, 43.1 49.51, 80.19 7.25 M3.29 101.92 C31.64 65.22, 61.82 29.56, 86.11 4.31 M3.01 100.13 C36.5 63.54, 70 24.38, 86.77 4.71 M5.9 105.66 C27.89 76.07, 52.58 51.33, 91.53 5.09 M4.61 106.95 C40.28 64.46, 75.92 25.31, 92.11 4.55 M5.29 109.21 C41.08 67.49, 80.68 24.07, 101.19 4.7 M4.88 110.45 C36.41 76.07, 68.32 39.16, 98.72 2.05 M6.41 117.47 C40.14 74.71, 73.82 38.86, 108.33 -0.98 M6.65 117.01 C36.37 82.79, 63.72 49.14, 106.08 0.27 M7.35 122.62 C48.72 75.04, 87.14 31.98, 109.64 0.8 M6.87 121.54 C42.22 80.74, 76.08 41.2, 110.28 1.66 M8.12 126.91 C51.18 79.13, 95.05 28.86, 113.76 4.65 M8.76 126.32 C47.69 81.52, 85.91 36.01, 114.97 4.1 M9.26 130.52 C38.34 94.88, 68.73 63.12, 117.46 3.17 M10.93 129.84 C51.19 81.57, 92.15 35.02, 119.02 5.05 M11.93 131.12 C35.54 104.23, 60.95 74.84, 123.59 3.49 M12.98 132.42 C54.62 84.86, 96.31 37.79, 124.94 5.12 M16.53 135.62 C41.45 108.93, 65.85 76.94, 127.17 4.61 M14.5 137.03 C41.64 104.42, 69.6 74.29, 128.39 5.43 M18.09 140.07 C51.12 98.71, 87.3 61.04, 133.99 5.15 M18.03 139.14 C45.64 108.27, 73.03 76.91, 133.33 6.44 M20.95 141.89 C58.44 98.59, 101.81 51.3, 139.34 7.98 M20.12 144.05 C54.72 105.37, 87.85 66.38, 138.15 6.54 M23.45 146.25 C54.43 109.61, 86.67 73.63, 140.74 6.74 M21.53 147.26 C46.46 119.12, 69.6 92.31, 142.89 7.65 M25.27 149.57 C67.29 100.53, 109.53 54.11, 145.88 8.43 M25.04 149.03 C58.58 109.18, 92.73 71.27, 146.67 9.83 M29.49 152.91 C55.83 120.87, 82.39 90.89, 150.65 10.43 M26.99 151.79 C64.38 110.14, 98.37 70.38, 150.19 11.33 M28.58 158.46 C61.3 115.7, 96.28 80.8, 153.92 13.13 M29.7 157.65 C78.56 101.02, 128 44.35, 151.91 15.25 M34.36 158.36 C71.05 115.33, 108.13 73.05, 155.44 16.41 M32.92 159.25 C61.98 126.37, 89.94 94.38, 156.5 17.05 M36.84 160.09 C59.24 132.88, 82.69 106.32, 159.94 19.27 M35.16 160.22 C61.54 131.38, 85.5 100.25, 158.39 20.22 M38.11 162.17 C70.5 126.66, 100.6 92.94, 161.12 22.12 M39.02 162.87 C85.56 114.17, 128.47 62.19, 162.2 21.58 M44.42 166.06 C84.15 117.98, 124.08 69.72, 165.02 23.09 M41.73 165.14 C75.28 129.89, 107.88 90.94, 165.6 23.65 M48.16 168.44 C77.8 134.94, 105.52 98.93, 170.03 24.33 M46.65 166.88 C84.21 125.44, 120.66 82.28, 169.78 25.95 M49.28 171.52 C82.41 129.51, 120.45 88.05, 174.24 28.35 M49.08 169.25 C91.54 122.06, 135.87 72.24, 172.29 27.43 M53.22 171.33 C85.24 131.07, 118.74 95.11, 175.48 28.31 M53.75 172.99 C87.67 131.48, 120.86 92.57, 175.5 29.69 M56.36 176.1 C84.26 143.56, 109.47 112.39, 177.99 33.1 M56.65 173.86 C81.31 144.8, 106.43 115.37, 178.82 34.2 M59.94 178.49 C104.28 125.74, 148.66 72.53, 181.77 36.14 M60.52 176.88 C87.58 147.95, 113.15 117.11, 180.42 36.04 M64.86 176.48 C100.2 131.1, 140.67 88.76, 182.61 38.93 M63.97 178.27 C88.21 147.56, 114.33 118.92, 182.81 39.57 M69.59 178.12 C91.82 149.77, 119.77 121.48, 184.13 41.89 M69.05 178.23 C96.26 147.12, 124.48 116.72, 185.29 44.23 M71.65 179.39 C106.95 141.3, 138.15 101.49, 186.41 46.67 M73.02 179.79 C108.13 137.49, 144.32 95.86, 188.11 46.9 M80.14 177.97 C106.8 146.09, 133.75 115.03, 188.75 48.44 M78.46 178.69 C118.29 133.83, 158.57 88.15, 189.66 51.22 M81.26 179.58 C111.16 150.46, 137.03 117.15, 194.31 54.22 M83.21 180.7 C114.92 147.15, 144.36 111.75, 192.55 54 M87.52 183.04 C113.14 154.59, 135.6 125.91, 197.48 54.44 M87.09 182.69 C110.98 156.48, 133.37 130.87, 195.51 55.71 M90.5 182.83 C123.84 147.42, 151.45 113.71, 197.9 60.25 M91.07 182.26 C118.96 151.66, 145.15 122.4, 198.86 59.94 M95.56 181.64 C121.88 154.05, 145.29 123.51, 199.15 63.33 M95.51 182.33 C126.25 148.06, 157.8 111.76, 201.62 64.14 M100.48 186.21 C127.51 156.38, 152.78 125.74, 201.44 66.72 M101.2 183.97 C140.14 138.14, 180.21 92.04, 201.74 68.54 M106.79 183.09 C134.11 153.63, 159.58 118.9, 200.92 71.84 M106.25 184.23 C138.67 144.85, 171.88 107.85, 201.86 72.2 M111.88 182.02 C145.68 143.39, 183.05 103, 202.44 77.36 M112.59 182.54 C136.68 155.74, 160.41 129.84, 203.48 77.84 M119.64 179.97 C145.47 151.19, 173.09 120.86, 202.85 82.72 M118.08 180.73 C150.07 146.47, 180.52 110.79, 204.82 82.51 M123.14 181.43 C147.56 153.12, 170.28 125.58, 206.36 87.44 M123.74 180.45 C155.93 143.95, 186.51 106.84, 205.6 88.85 M131.29 178.46 C158.86 147.45, 189.43 113.98, 207.29 91.98 M131.79 179.18 C158.54 147.83, 185.95 116.22, 206.2 92.97 M134.94 180.32 C161.9 147.76, 188.4 118.83, 209.33 96.99 M136.24 178.91 C159.46 152.03, 184.74 123.29, 206.54 97.8 M143.49 179.23 C159.52 158.47, 180.9 138.62, 203.68 108.96 M141.03 179.9 C157.62 160.45, 175.46 142.27, 204.55 107.72 M152.2 173.37 C162.24 163.98, 172.37 148.12, 201.55 116.89 M151.71 174.82 C165.4 157.72, 180.18 143.39, 202.19 117.27 M161.78 168.89 C172.7 154.84, 186.01 143.11, 193.08 130.78 M162.56 168.62 C174.2 154.05, 185.66 140.23, 194.85 130.65" stroke="#ffc9c9" stroke-width="0.5" fill="none"></path><path d="M65.71 6.5 C76.42 1.38, 91.51 -0.24, 104.45 -0.06 C117.38 0.11, 131.29 2.57, 143.3 7.53 C155.31 12.5, 167.37 20.94, 176.51 29.75 C185.65 38.55, 193.51 49.33, 198.14 60.36 C202.77 71.39, 204.96 84.25, 204.31 95.95 C203.67 107.65, 199.65 119.97, 194.27 130.57 C188.89 141.16, 181.29 151.58, 172.03 159.51 C162.77 167.43, 150.8 174.13, 138.72 178.11 C126.65 182.09, 112.76 183.67, 99.58 183.4 C86.41 183.13, 71.51 181.11, 59.68 176.5 C47.84 171.88, 37.53 164.4, 28.56 155.7 C19.6 147, 10.62 135.41, 5.89 124.3 C1.16 113.2, -0.32 100.87, 0.19 89.06 C0.69 77.24, 3.64 63.98, 8.91 53.42 C14.19 42.87, 21.35 33.9, 31.84 25.75 C42.33 17.6, 64.14 8.1, 71.85 4.54 C79.56 0.97, 77.45 3.11, 78.12 4.34 M56.57 8.86 C67.09 2.14, 82.71 -0.29, 95.66 -0.97 C108.62 -1.65, 122.16 1.1, 134.32 4.78 C146.49 8.45, 158.79 13.32, 168.63 21.08 C178.47 28.84, 187.42 40.76, 193.37 51.35 C199.32 61.95, 203.43 73.28, 204.33 84.67 C205.23 96.07, 202.8 108.6, 198.78 119.71 C194.76 130.82, 188.47 142.34, 180.2 151.35 C171.92 160.36, 160.79 168.16, 149.11 173.78 C137.43 179.4, 123.11 183.88, 110.1 185.07 C97.08 186.26, 83.6 184.81, 71 180.92 C58.4 177.04, 44.3 169.43, 34.5 161.74 C24.69 154.05, 17.73 145.14, 12.16 134.78 C6.59 124.43, 2.4 111.29, 1.08 99.6 C-0.25 87.91, 0.12 75.86, 4.23 64.64 C8.34 53.41, 17.12 41.49, 25.73 32.25 C34.33 23, 50.72 12.55, 55.86 9.15 C60.99 5.76, 55.71 10.15, 56.55 11.86" stroke="#f08c00" stroke-width="1" fill="none"></path></g><g stroke-linecap="round" transform="translate(627.1630249023438 47.43414306640625) rotate(0 229.55584716796875 90.9124755859375)"><path d="M7.86 8.16 C7.86 8.16, 7.86 8.16, 7.86 8.16 M7.86 8.16 C7.86 8.16, 7.86 8.16, 7.86 8.16 M3.66 19.09 C4.98 13.88, 10.24 13.06, 18.1 2.48 M3.66 19.09 C8.3 15.47, 12.11 9.7, 18.1 2.48 M2.75 26.24 C10.11 19.31, 17.12 10.32, 24.4 1.33 M2.75 26.24 C9.48 17.15, 17.84 9.73, 24.4 1.33 M2.48 32.64 C6.76 26.44, 14.77 17.17, 30.7 0.18 M2.48 32.64 C9.65 24.55, 16.56 18.31, 30.7 0.18 M2.88 38.28 C9.04 28.22, 19.45 19.78, 34.37 2.05 M2.88 38.28 C15.35 23.77, 27.56 10.93, 34.37 2.05 M2.62 44.68 C17.41 29.65, 33.13 10.19, 39.36 2.41 M2.62 44.68 C13.41 30.91, 26.55 17.9, 39.36 2.41 M2.36 51.07 C15.45 35.63, 28.8 19.76, 45 2.02 M2.36 51.07 C16.63 36.1, 29.6 19.56, 45 2.02 M2.75 56.72 C17.87 36.67, 34.79 18.77, 49.99 2.38 M2.75 56.72 C21.26 34.39, 40 14.01, 49.99 2.38 M2.49 63.11 C18.41 43.66, 36.55 27.36, 55.63 1.98 M2.49 63.11 C21.21 41.16, 42.01 17.16, 55.63 1.98 M2.88 68.76 C22.63 46.05, 44.73 21.95, 60.62 2.34 M2.88 68.76 C14.79 54.01, 29.56 38.72, 60.62 2.34 M2.62 75.16 C26.2 47.01, 53.77 17.42, 66.26 1.95 M2.62 75.16 C26.98 46.21, 50.93 17.45, 66.26 1.95 M2.36 81.55 C21.6 55.66, 41.66 33.86, 71.25 2.31 M2.36 81.55 C24.18 56.15, 44.98 30.53, 71.25 2.31 M2.76 87.2 C30.75 53.35, 61.38 22.42, 76.89 1.91 M2.76 87.2 C27.4 56.87, 54.12 26.08, 76.89 1.91 M2.49 93.59 C34.03 59.81, 65.03 23.04, 81.88 2.27 M2.49 93.59 C23.66 68.29, 47.91 40.89, 81.88 2.27 M2.89 99.24 C25.55 69.05, 52.27 42.28, 87.52 1.88 M2.89 99.24 C23.35 74.92, 45.17 50.33, 87.52 1.88 M2.63 105.64 C34.75 67.61, 71.57 27.12, 92.51 2.24 M2.63 105.64 C28.53 75.91, 53.57 45.56, 92.51 2.24 M2.37 112.03 C29.78 78.88, 57.11 47.78, 98.15 1.85 M2.37 112.03 C23.93 88.15, 43.08 66.48, 98.15 1.85 M2.76 117.68 C42 73.25, 79.56 27.55, 103.14 2.21 M2.76 117.68 C40.47 74.15, 79.37 28.96, 103.14 2.21 M2.5 124.07 C23.74 99.09, 46.15 72.49, 108.78 1.81 M2.5 124.07 C42.69 77.8, 82.03 32.52, 108.78 1.81 M2.89 129.72 C35.1 90.61, 67.13 53.44, 113.77 2.17 M2.89 129.72 C44.99 81.89, 84.79 34.5, 113.77 2.17 M2.63 136.11 C29.54 101.89, 60.39 70.43, 119.41 1.78 M2.63 136.11 C26.32 107.43, 50.3 80.67, 119.41 1.78 M2.37 142.51 C35.81 100.99, 72.08 63.22, 124.4 2.14 M2.37 142.51 C46.64 93.78, 89.63 44.27, 124.4 2.14 M2.77 148.16 C52.08 92.64, 98.39 37.29, 130.04 1.74 M2.77 148.16 C53.12 89.56, 104.41 33.43, 130.04 1.74 M2.5 154.55 C49.71 97.13, 98.41 42.98, 135.03 2.1 M2.5 154.55 C53.68 94.4, 104.6 35.11, 135.03 2.1 M3.55 159.44 C41.18 117.03, 75.86 76.34, 140.67 1.71 M3.55 159.44 C51.26 103.71, 101.02 48.03, 140.67 1.71 M4.61 164.33 C34.47 126.13, 68.22 90.08, 145.66 2.07 M4.61 164.33 C35.33 127.76, 66.88 92.07, 145.66 2.07 M5 169.97 C42.39 123.51, 80.72 81.97, 150.65 2.43 M5 169.97 C52.99 115.1, 100.54 61.57, 150.65 2.43 M8.02 172.6 C64.49 109.21, 119.96 47.7, 156.29 2.03 M8.02 172.6 C62.78 111.17, 115.22 48.8, 156.29 2.03 M11.04 175.22 C42.67 137.69, 76.82 96.35, 161.28 2.39 M11.04 175.22 C50.44 130.15, 91.5 82.93, 161.28 2.39 M13.4 178.6 C74.26 112.63, 134.7 40.87, 166.92 2 M13.4 178.6 C75.34 109.54, 135.12 39.6, 166.92 2 M17.73 179.72 C71.25 120.43, 122.82 60.5, 171.91 2.36 M17.73 179.72 C74.34 114.33, 131.12 48.28, 171.91 2.36 M20.75 182.34 C65.91 130.68, 113.15 79.34, 177.55 1.96 M20.75 182.34 C64.33 132.48, 106.52 83.12, 177.55 1.96 M25.74 182.7 C61.83 140.21, 97.87 99.11, 182.54 2.32 M25.74 182.7 C77.75 125.32, 128.12 64.52, 182.54 2.32 M30.07 183.81 C85.38 116.82, 146.44 50.95, 188.18 1.93 M30.07 183.81 C68.62 141.1, 105.92 97.41, 188.18 1.93 M35.06 184.17 C86.46 125.62, 132.92 69.69, 193.17 2.29 M35.06 184.17 C78.63 131.19, 123.45 80.37, 193.17 2.29 M40.04 184.53 C94.03 124.19, 145.53 63.13, 198.81 1.9 M40.04 184.53 C86.9 132.33, 133.34 79.31, 198.81 1.9 M45.69 184.14 C79.23 147.94, 108.49 109.1, 203.8 2.26 M45.69 184.14 C92.9 133.92, 137.85 81.52, 203.8 2.26 M50.67 184.5 C111.63 114.14, 172.29 43.73, 209.44 1.86 M50.67 184.5 C98.45 130.04, 146.45 73.8, 209.44 1.86 M56.32 184.11 C105.01 129.57, 152.1 74.55, 214.43 2.22 M56.32 184.11 C90.04 144.78, 124.25 105.2, 214.43 2.22 M61.3 184.47 C114.34 122.82, 169.66 63.59, 220.07 1.83 M61.3 184.47 C115.15 124.76, 169.35 62.8, 220.07 1.83 M66.95 184.07 C108.81 137.76, 150.27 87.1, 225.06 2.19 M66.95 184.07 C111.17 133.88, 154.24 82.86, 225.06 2.19 M71.93 184.43 C118.23 131.48, 165.65 79.66, 230.7 1.79 M71.93 184.43 C120.77 126.07, 170.71 69.32, 230.7 1.79 M77.58 184.04 C124.08 134.93, 166.01 81.79, 235.69 2.15 M77.58 184.04 C123.75 133.94, 169.04 82.47, 235.69 2.15 M82.56 184.4 C139.9 118.79, 196.53 51.87, 241.33 1.76 M82.56 184.4 C134.97 125.02, 188.85 64.97, 241.33 1.76 M88.21 184 C148.59 109.66, 210.66 39.37, 246.32 2.12 M88.21 184 C148.93 111.49, 211 40.76, 246.32 2.12 M93.19 184.36 C149.31 120.5, 208.65 54.21, 251.96 1.72 M93.19 184.36 C152.09 118.46, 209.65 50.62, 251.96 1.72 M98.18 184.72 C131.72 146.76, 163.94 107.36, 256.95 2.08 M98.18 184.72 C156.91 116.89, 216.8 48.56, 256.95 2.08 M103.82 184.33 C149.84 132.02, 198.06 76.05, 262.59 1.69 M103.82 184.33 C161.56 117.23, 217.7 53.09, 262.59 1.69 M108.81 184.69 C169.17 113.92, 231.96 44.42, 267.58 2.05 M108.81 184.69 C160.36 124.38, 212.21 64.73, 267.58 2.05 M114.45 184.29 C160.96 133.67, 206.94 79.15, 272.56 2.41 M114.45 184.29 C167.53 123.82, 218.4 64.79, 272.56 2.41 M119.44 184.65 C168.25 127.43, 219.3 70.68, 278.21 2.01 M119.44 184.65 C177.5 118.41, 234.37 51.83, 278.21 2.01 M125.08 184.26 C162.71 138.38, 204.6 92.63, 283.19 2.37 M125.08 184.26 C170.47 134.82, 214.5 85.05, 283.19 2.37 M130.07 184.62 C169.02 138.21, 209.06 94.82, 288.84 1.98 M130.07 184.62 C180.92 124.48, 231.84 66.37, 288.84 1.98 M135.71 184.22 C167.36 148.5, 202.34 113, 293.82 2.34 M135.71 184.22 C175.98 136.06, 217.71 88.57, 293.82 2.34 M140.7 184.58 C175.78 145.38, 206.61 108.29, 299.47 1.94 M140.7 184.58 C184.34 134.28, 227.76 83.97, 299.47 1.94 M146.34 184.19 C204.43 118.64, 261.54 51.31, 304.45 2.3 M146.34 184.19 C196.02 125.8, 248.37 65.87, 304.45 2.3 M151.33 184.55 C189.68 143.07, 226.53 97.3, 310.1 1.91 M151.33 184.55 C186.13 144.43, 220.63 106.28, 310.1 1.91 M156.97 184.16 C196.42 139.64, 236.97 94.36, 315.08 2.27 M156.97 184.16 C216.72 115.9, 277.27 46.12, 315.08 2.27 M161.96 184.52 C217.56 121.22, 272.23 58.48, 320.73 1.88 M161.96 184.52 C218.1 121.36, 272.47 57.7, 320.73 1.88 M167.6 184.12 C228.37 113.89, 291.86 44.21, 325.71 2.24 M167.6 184.12 C216.57 125.96, 266.23 69.84, 325.71 2.24 M172.59 184.48 C205.04 146.5, 238.12 108.1, 331.36 1.84 M172.59 184.48 C205.51 144.4, 239.26 106.12, 331.36 1.84 M178.23 184.09 C209.68 147.65, 240.88 112.37, 336.34 2.2 M178.23 184.09 C223.9 131.64, 268.08 80.94, 336.34 2.2 M183.22 184.45 C218.34 145.14, 252.63 103.81, 341.99 1.81 M183.22 184.45 C239.38 117.21, 298.11 52.33, 341.99 1.81 M188.86 184.05 C236.63 125.54, 289.76 69.35, 346.97 2.17 M188.86 184.05 C224.45 142.46, 260.15 102.19, 346.97 2.17 M193.85 184.41 C234.03 135.46, 271.71 91.38, 352.62 1.77 M193.85 184.41 C240.38 133.71, 286.16 81.06, 352.62 1.77 M199.49 184.02 C239.5 137.98, 282.08 90.4, 357.6 2.13 M199.49 184.02 C255.44 120.69, 310.75 56.4, 357.6 2.13 M204.48 184.38 C256.17 124.8, 306.95 67.11, 363.25 1.74 M204.48 184.38 C249.11 132.49, 294.07 80.06, 363.25 1.74 M210.12 183.98 C266.52 120.68, 323.55 52.81, 368.23 2.1 M210.12 183.98 C246.89 142.15, 281.5 101, 368.23 2.1 M215.11 184.34 C263.87 128.93, 308.99 75.31, 373.88 1.7 M215.11 184.34 C276.91 112.49, 338.97 40.02, 373.88 1.7 M220.1 184.7 C258.42 140.9, 299.65 94.7, 378.86 2.06 M220.1 184.7 C271.43 127.46, 321.17 69.55, 378.86 2.06 M225.74 184.31 C288.53 113.78, 350.45 42.35, 383.85 2.42 M225.74 184.31 C267.36 135.01, 309.81 88.41, 383.85 2.42 M230.73 184.67 C285.96 118.7, 343.05 54.22, 389.49 2.03 M230.73 184.67 C270.5 138.77, 308.91 95.3, 389.49 2.03 M236.37 184.27 C280.03 132.39, 323.73 80.13, 394.48 2.39 M236.37 184.27 C278.95 135.17, 320.45 87.51, 394.48 2.39 M241.36 184.63 C272.91 146.83, 308.36 107.93, 400.12 1.99 M241.36 184.63 C292.47 128.1, 342.69 70.09, 400.12 1.99 M247 184.24 C306.59 114.48, 368.61 46.95, 405.11 2.35 M247 184.24 C280.81 147.04, 314.58 108.17, 405.11 2.35 M251.99 184.6 C309.94 117.16, 366.74 51.33, 410.75 1.96 M251.99 184.6 C315.36 110.57, 378.45 38.95, 410.75 1.96 M257.63 184.21 C316.6 118.31, 374.49 51.45, 415.74 2.32 M257.63 184.21 C291.61 146.37, 324.8 109.22, 415.74 2.32 M262.62 184.57 C298.04 140.67, 336.08 98.79, 421.38 1.93 M262.62 184.57 C300.35 139.74, 339.85 95.61, 421.38 1.93 M268.26 184.17 C308.43 134.54, 350.75 86.11, 427.68 0.78 M268.26 184.17 C303.39 143.83, 337.33 103.25, 427.68 0.78 M273.25 184.53 C314.57 134.33, 357.34 86.75, 432.67 1.14 M273.25 184.53 C332.91 116.01, 390.77 47.81, 432.67 1.14 M278.89 184.14 C335.3 119.57, 390.91 54.21, 437 2.25 M278.89 184.14 C326.11 130.06, 372.6 75.43, 437 2.25 M283.88 184.5 C347.28 114.52, 409.27 39.04, 441.99 2.61 M283.88 184.5 C342.75 117.16, 400.54 50.06, 441.99 2.61 M289.52 184.1 C328.71 138.02, 369.95 92.49, 445.66 4.48 M289.52 184.1 C344.38 120.17, 398.38 56.79, 445.66 4.48 M294.51 184.46 C350.84 117.18, 410.58 50.65, 448.68 7.1 M294.51 184.46 C327.55 145.2, 360.17 106.68, 448.68 7.1 M300.15 184.07 C338.14 137.59, 377.16 92.48, 452.36 8.97 M300.15 184.07 C360.53 116.29, 420.28 45.77, 452.36 8.97 M305.14 184.43 C340.65 142.41, 378.54 102.08, 454.72 12.35 M305.14 184.43 C359.03 123.83, 411.14 64.51, 454.72 12.35 M310.78 184.03 C368.22 119.68, 424.31 54.74, 457.74 14.98 M310.78 184.03 C347.5 139.41, 386.99 96.08, 457.74 14.98 M315.77 184.39 C348.54 146.28, 382.24 106.64, 458.79 19.87 M315.77 184.39 C371.77 121.18, 426.47 58.79, 458.79 19.87 M321.41 184 C365.69 135.69, 407.79 85.01, 459.18 25.51 M321.41 184 C364.49 132.24, 408.01 81.74, 459.18 25.51 M326.4 184.36 C368.02 138.9, 409.85 91.81, 459.58 31.15 M326.4 184.36 C353.15 153.18, 380.07 122.58, 459.58 31.15 M331.39 184.72 C371.51 142.2, 406.32 96.29, 459.32 37.55 M331.39 184.72 C375.36 131.58, 420.94 78.98, 459.32 37.55 M337.03 184.32 C385.48 127.95, 434.96 72.83, 459.71 43.19 M337.03 184.32 C370.14 146.18, 404.54 106.8, 459.71 43.19 M342.02 184.68 C365.1 157.59, 388.39 129.06, 459.45 49.59 M342.02 184.68 C376.11 146.49, 407.5 108.96, 459.45 49.59 M347.66 184.29 C387.92 137.96, 430.23 91.02, 459.85 55.23 M347.66 184.29 C384.69 143, 421.53 102.03, 459.85 55.23 M352.65 184.65 C382.14 151.94, 409.45 117.44, 459.58 61.63 M352.65 184.65 C376 156.23, 401.75 129.22, 459.58 61.63 M358.29 184.25 C384.09 156.03, 410.18 126.69, 459.32 68.03 M358.29 184.25 C385.61 152.75, 413.42 121.08, 459.32 68.03 M363.28 184.61 C384.19 162.52, 400.94 138.38, 459.72 73.67 M363.28 184.61 C388.92 154.82, 412.74 127.83, 459.72 73.67 M368.92 184.22 C386.78 161.15, 409.91 138.27, 459.46 80.07 M368.92 184.22 C395.19 152.63, 420.83 123.61, 459.46 80.07 M373.91 184.58 C394.45 160.94, 413.43 140.56, 459.85 85.71 M373.91 184.58 C395.11 159.43, 417.72 134.7, 459.85 85.71 M379.55 184.19 C398.12 165.3, 411.87 146.63, 459.59 92.11 M379.55 184.19 C406.69 151.97, 434.46 120.36, 459.59 92.11 M384.54 184.55 C400.77 165.44, 418.75 144.17, 459.98 97.75 M384.54 184.55 C399.44 167.07, 414.43 149.63, 459.98 97.75 M390.18 184.15 C410.31 160.04, 430.83 136.56, 459.72 104.15 M390.18 184.15 C407.97 164.86, 426.34 144.99, 459.72 104.15 M395.17 184.51 C414.72 162.43, 431.62 144.27, 459.46 110.55 M395.17 184.51 C419.56 159.06, 440.93 131.05, 459.46 110.55 M400.81 184.12 C417.96 162.74, 438.92 141.83, 459.85 116.19 M400.81 184.12 C415.57 168.18, 427.99 152.89, 459.85 116.19 M405.8 184.48 C421.47 170.01, 432.06 153.31, 459.59 122.59 M405.8 184.48 C420.29 169.54, 432.36 153.19, 459.59 122.59 M411.44 184.08 C421.73 171.14, 434.28 158.98, 459.99 128.23 M411.44 184.08 C427.9 165.7, 443.62 147.6, 459.99 128.23 M416.43 184.44 C433.37 166.58, 451.39 145.05, 459.73 134.63 M416.43 184.44 C427.13 170.27, 440.1 156.14, 459.73 134.63 M422.07 184.05 C431.93 173.65, 439.11 167.39, 460.12 140.27 M422.07 184.05 C431.23 173.77, 439.39 164.1, 460.12 140.27 M428.37 182.9 C434.6 177.15, 442.73 167.11, 459.86 146.67 M428.37 182.9 C438.16 171.18, 448.03 161.05, 459.86 146.67 M434.67 181.75 C444.72 172.22, 452.61 162.3, 460.91 151.56 M434.67 181.75 C439.31 175.06, 445.49 168.2, 460.91 151.56 M441.62 179.85 C446.98 173.71, 452.37 163.67, 459.99 158.71 M441.62 179.85 C446.98 173.65, 452.32 166.96, 459.99 158.71" stroke="#ffc9c9" stroke-width="0.5" fill="none"></path><path d="M32 0 M32 0 C186.23 -0.03, 339.87 -1.3, 427.11 0 M32 0 C119.61 1.53, 207.57 0.93, 427.11 0 M427.11 0 C448.63 0.77, 460.92 8.86, 459.11 32 M427.11 0 C447.23 0.83, 458.34 9.36, 459.11 32 M459.11 32 C456.29 78.44, 459.96 123.99, 459.11 149.82 M459.11 32 C459.81 56.48, 460.24 82.07, 459.11 149.82 M459.11 149.82 C458.35 169.22, 449.12 182.03, 427.11 181.82 M459.11 149.82 C458.19 170, 449.47 182.63, 427.11 181.82 M427.11 181.82 C301.65 180.23, 175.01 179.85, 32 181.82 M427.11 181.82 C278.55 179.61, 130.25 179.56, 32 181.82 M32 181.82 C12 181.14, 0.89 171.53, 0 149.82 M32 181.82 C9.48 181.57, 0.5 169.02, 0 149.82 M0 149.82 C-1.08 104.01, -0.94 56.91, 0 32 M0 149.82 C0.04 106.09, 1.18 61.9, 0 32 M0 32 C0.39 9.49, 11.57 -0.21, 32 0 M0 32 C0.07 12.02, 10.58 -1.75, 32 0" stroke="#f08c00" stroke-width="1" fill="none"></path></g><g transform="translate(650.176025390625 48.210357666015625) rotate(0 217.16983032226562 75)"><text x="0" y="0" font-family="Virgil, Segoe UI Emoji" font-size="20px" fill="#f08c00" text-anchor="start" style="white-space: pre;" direction="ltr" dominant-baseline="text-before-edge"></text><text x="0" y="25" font-family="Virgil, Segoe UI Emoji" font-size="20px" fill="#f08c00" text-anchor="start" style="white-space: pre;" direction="ltr" dominant-baseline="text-before-edge">&lt;html&gt;</text><text x="0" y="50" font-family="Virgil, Segoe UI Emoji" font-size="20px" fill="#f08c00" text-anchor="start" style="white-space: pre;" direction="ltr" dominant-baseline="text-before-edge"></text><text x="0" y="75" font-family="Virgil, Segoe UI Emoji" font-size="20px" fill="#f08c00" text-anchor="start" style="white-space: pre;" direction="ltr" dominant-baseline="text-before-edge">  &lt;div data-template="author_template /&gt;"</text><text x="0" y="100" font-family="Virgil, Segoe UI Emoji" font-size="20px" fill="#f08c00" text-anchor="start" style="white-space: pre;" direction="ltr" dominant-baseline="text-before-edge"></text><text x="0" y="125" font-family="Virgil, Segoe UI Emoji" font-size="20px" fill="#f08c00" text-anchor="start" style="white-space: pre;" direction="ltr" dominant-baseline="text-before-edge">&lt;/html&gt;</text></g><g transform="translate(76.02328491210938 185.48074340820312) rotate(0 34.05598449707031 22.5)"><text x="0" y="0" font-family="Virgil, Segoe UI Emoji" font-size="36px" fill="#f08c00" text-anchor="start" style="white-space: pre;" direction="ltr" dominant-baseline="text-before-edge">View</text></g><g transform="translate(673.2592163085938 10) rotate(0 31.80799102783203 17.5)"><text x="0" y="0" font-family="Virgil, Segoe UI Emoji" font-size="28px" fill="#f08c00" text-anchor="start" style="white-space: pre;" direction="ltr" dominant-baseline="text-before-edge">DOM</text></g><g stroke-linecap="round"><g transform="translate(331.1546630859376 146.40268015786052) rotate(0 -57.08147251858128 11.052507921430816)"><path d="M-0.99 -1.19 C-2.11 -1.45, 13.77 -5.41, -5.67 -1.13 C-25.1 3.15, -99.1 20.07, -117.62 24.49 M0.69 0.8 C-0.7 0.62, 13.14 -4.24, -6.69 -0.17 C-26.51 3.9, -100.05 20.79, -118.27 25.21" stroke="#f08c00" stroke-width="1" fill="none"></path></g><g transform="translate(331.1546630859376 146.40268015786052) rotate(0 -57.08147251858128 11.052507921430816)"><path d="M-95.16 8.55 C-104.74 15.36, -114.58 23.12, -118.64 26.28 M-92.36 8.37 C-100.57 13.77, -107.71 18.24, -118.76 24.94" stroke="#f08c00" stroke-width="1" fill="none"></path></g><g transform="translate(331.1546630859376 146.40268015786052) rotate(0 -57.08147251858128 11.052507921430816)"><path d="M-90.46 28.53 C-101.94 27.5, -113.62 27.47, -118.64 26.28 M-87.67 28.35 C-97.42 27.89, -105.94 26.51, -118.76 24.94" stroke="#f08c00" stroke-width="1" fill="none"></path></g></g><mask></mask><g transform="translate(343.08111572265625 89.3199462890625) rotate(0 116.21395111083984 52.5)"><text x="0" y="0" font-family="Virgil, Segoe UI Emoji" font-size="28px" fill="#1971c2" text-anchor="start" style="white-space: pre;" direction="ltr" dominant-baseline="text-before-edge">Execute function</text><text x="0" y="35" font-family="Virgil, Segoe UI Emoji" font-size="28px" fill="#1971c2" text-anchor="start" style="white-space: pre;" direction="ltr" dominant-baseline="text-before-edge">Queries DOM for</text><text x="0" y="70" font-family="Virgil, Segoe UI Emoji" font-size="28px" fill="#1971c2" text-anchor="start" style="white-space: pre;" direction="ltr" dominant-baseline="text-before-edge">Template tags.</text></g><g stroke-linecap="round"><g transform="translate(653.5609130859375 131.25631713867188) rotate(0 -36.77636422343551 -0.5355186741799116)"><path d="M-0.29 0.66 C-12.8 0.54, -62.9 0.22, -75.31 0.12 M1.76 -0.04 C-10.34 -0.6, -60.07 -1.39, -72.95 -1.73" stroke="#f08c00" stroke-width="1" fill="none"></path></g></g><mask></mask><g stroke-linecap="round"><g transform="translate(203.34585571289062 231.7642822265625) rotate(0 60.72166449673472 8.56277013219895)"><path d="M0.87 0.55 C21.24 3.18, 101.48 13.54, 121.58 16.21 M-0.14 -0.21 C20.19 2.52, 100.75 14.37, 120.93 17.34" stroke="#f08c00" stroke-width="1" fill="none"></path></g></g><mask></mask><g transform="translate(338.564453125 226.87030029296875) rotate(0 135.98193359375 52.5)"><text x="0" y="0" font-family="Virgil, Segoe UI Emoji" font-size="28px" fill="#1971c2" text-anchor="start" style="white-space: pre;" direction="ltr" dominant-baseline="text-before-edge">Populates tag</text><text x="0" y="35" font-family="Virgil, Segoe UI Emoji" font-size="28px" fill="#1971c2" text-anchor="start" style="white-space: pre;" direction="ltr" dominant-baseline="text-before-edge">with rendered HTML</text><text x="0" y="70" font-family="Virgil, Segoe UI Emoji" font-size="28px" fill="#1971c2" text-anchor="start" style="white-space: pre;" direction="ltr" dominant-baseline="text-before-edge">from template</text></g><g stroke-linecap="round" transform="translate(638.6705932617188 263.49627685546875) rotate(0 112.66769409179688 91.7381591796875)"><path d="M7.86 8.16 C7.86 8.16, 7.86 8.16, 7.86 8.16 M7.86 8.16 C7.86 8.16, 7.86 8.16, 7.86 8.16 M3.66 19.09 C7.02 15.83, 9.49 8.21, 18.1 2.48 M3.66 19.09 C7.04 15.25, 10.09 10.06, 18.1 2.48 M2.75 26.24 C10.09 18.6, 15.43 9.39, 24.4 1.33 M2.75 26.24 C11.52 18.02, 18.57 8.7, 24.4 1.33 M2.48 32.64 C7.26 26.07, 15.04 18.37, 30.7 0.18 M2.48 32.64 C11.42 21.78, 20.16 10.84, 30.7 0.18 M2.88 38.28 C9.87 30.99, 17.85 21.62, 34.37 2.05 M2.88 38.28 C13.28 24.99, 25.15 12.43, 34.37 2.05 M2.62 44.68 C16.31 30.26, 26.52 15.06, 39.36 2.41 M2.62 44.68 C12.68 32.95, 21.98 20.99, 39.36 2.41 M2.36 51.07 C15.76 36.31, 29.12 20.3, 45 2.02 M2.36 51.07 C13.14 38.9, 24.13 27.91, 45 2.02 M2.75 56.72 C18.37 38.21, 38.58 16.34, 49.99 2.38 M2.75 56.72 C21.15 35.65, 39.45 15.13, 49.99 2.38 M2.49 63.11 C18.13 44.48, 33.03 25.3, 55.63 1.98 M2.49 63.11 C13.32 48.87, 27.19 34.81, 55.63 1.98 M2.23 69.51 C19.58 47.86, 40.41 26.97, 60.62 2.34 M2.23 69.51 C16.58 54.12, 30.84 37.08, 60.62 2.34 M2.62 75.16 C24.4 49.57, 44.24 27.99, 66.26 1.95 M2.62 75.16 C21.08 53.62, 39.22 31.16, 66.26 1.95 M2.36 81.55 C22.71 56.06, 41.29 34.43, 71.25 2.31 M2.36 81.55 C16.44 64.48, 28.9 48.33, 71.25 2.31 M2.1 87.95 C30.73 55.1, 61.12 19.45, 76.89 1.91 M2.1 87.95 C18.17 69.07, 34.42 49.47, 76.89 1.91 M2.49 93.59 C27.55 63.7, 57.91 32, 81.88 2.27 M2.49 93.59 C27.39 62.9, 53.68 33.57, 81.88 2.27 M2.23 99.99 C29.95 66.64, 61.96 31.32, 87.52 1.88 M2.23 99.99 C30.95 66.81, 60.95 30.98, 87.52 1.88 M2.63 105.64 C28.97 76.51, 55.13 46.8, 92.51 2.24 M2.63 105.64 C24.96 79.34, 49.75 52.84, 92.51 2.24 M2.37 112.03 C23.83 86.54, 45.38 58.72, 98.15 1.85 M2.37 112.03 C27.76 83.8, 53.41 54.59, 98.15 1.85 M2.1 118.43 C36.6 75.62, 75.66 34.03, 103.14 2.21 M2.1 118.43 C36.89 79.6, 70.94 40.79, 103.14 2.21 M2.5 124.07 C41.67 79.02, 80.46 34.97, 108.78 1.81 M2.5 124.07 C34.12 89.15, 62.7 55.11, 108.78 1.81 M2.24 130.47 C43.8 80.99, 84.13 34.41, 113.77 2.17 M2.24 130.47 C34.5 94.57, 64.77 57.26, 113.77 2.17 M1.98 136.87 C34.17 98.11, 67.55 61.51, 119.41 1.78 M1.98 136.87 C44.84 89.47, 86.92 41.28, 119.41 1.78 M2.37 142.51 C38.73 102.39, 73.12 59.89, 124.4 2.14 M2.37 142.51 C38.7 99.42, 75.39 55.97, 124.4 2.14 M2.11 148.91 C46.19 96.96, 91.96 46.27, 130.04 1.74 M2.11 148.91 C50.22 92.57, 97.83 36.35, 130.04 1.74 M3.16 153.8 C48.46 101.81, 94.53 49.63, 135.03 2.1 M3.16 153.8 C31.1 121.87, 60.26 89.41, 135.03 2.1 M3.55 159.44 C55.07 101.05, 106.62 40.73, 140.67 1.71 M3.55 159.44 C44.39 113.15, 84.72 66.64, 140.67 1.71 M2.64 166.59 C35.74 126.1, 74.04 85.94, 145.66 2.07 M2.64 166.59 C43.88 116.6, 86.41 67.16, 145.66 2.07 M5 169.97 C40.02 131.66, 73.91 91.59, 150.65 2.43 M5 169.97 C58.13 110.01, 111.83 48.9, 150.65 2.43 M7.36 173.35 C65.72 104.75, 123.49 38.94, 156.29 2.03 M7.36 173.35 C43.82 134.55, 78.08 94.2, 156.29 2.03 M9.73 176.73 C65.53 114.14, 121.83 48.6, 161.28 2.39 M9.73 176.73 C54.73 122.41, 100.91 69.5, 161.28 2.39 M13.4 178.6 C59.14 128.98, 102.14 80.27, 166.92 2 M13.4 178.6 C72.65 107.51, 133.21 38.68, 166.92 2 M16.42 181.22 C66.9 124.17, 120.11 64.49, 171.91 2.36 M16.42 181.22 C73.53 114.56, 131.61 47.7, 171.91 2.36 M20.09 183.09 C61.11 132.87, 104.03 85.32, 177.55 1.96 M20.09 183.09 C70.7 123, 123.62 62.53, 177.55 1.96 M24.43 184.21 C62.4 139.65, 102.47 96.99, 182.54 2.32 M24.43 184.21 C63.06 138.59, 101.56 92.96, 182.54 2.32 M29.41 184.57 C67.88 141.46, 103.98 98.07, 188.18 1.93 M29.41 184.57 C76.18 128.11, 124.44 73.05, 188.18 1.93 M34.4 184.93 C85.92 125.99, 139.95 64.02, 194.48 0.78 M34.4 184.93 C93.88 116.95, 151.1 50.36, 194.48 0.78 M39.39 185.29 C89.13 128.44, 140.3 72.02, 198.81 1.9 M39.39 185.29 C93.22 124.26, 147.17 62.53, 198.81 1.9 M44.37 185.65 C101.7 118.44, 163.31 47.28, 203.8 2.26 M44.37 185.65 C107.58 113.44, 171.2 39.9, 203.8 2.26 M50.02 185.26 C103.17 124.45, 156.39 61.05, 208.78 2.62 M50.02 185.26 C106.92 118.74, 164.23 53.7, 208.78 2.62 M55 185.62 C99.32 134.83, 141.92 85.57, 211.8 5.24 M55 185.62 C109 122.31, 162.67 60.61, 211.8 5.24 M60.65 185.22 C91.91 147.48, 127.37 107.28, 215.48 7.11 M60.65 185.22 C104.63 133.71, 148.7 82.7, 215.48 7.11 M65.63 185.58 C115.11 130.77, 162.58 75.63, 219.15 8.98 M65.63 185.58 C105.59 139.16, 144.65 96.1, 219.15 8.98 M71.28 185.19 C128 119.99, 182.49 54.59, 220.86 13.11 M71.28 185.19 C120.04 127.81, 168.69 71.47, 220.86 13.11 M76.26 185.55 C110.1 145.61, 144.27 106.03, 223.22 16.49 M76.26 185.55 C121.75 132.73, 167.76 78.94, 223.22 16.49 M81.91 185.15 C119.12 140.66, 160.47 94.56, 225.58 19.87 M81.91 185.15 C120.17 139.89, 158.85 96.96, 225.58 19.87 M86.89 185.51 C139.94 121.43, 195.61 59.79, 225.98 25.51 M86.89 185.51 C133.6 129.68, 182.06 73.61, 225.98 25.51 M92.54 185.12 C133.97 134.5, 176.14 88.64, 225.72 31.91 M92.54 185.12 C145.07 126.42, 195.79 67.23, 225.72 31.91 M97.52 185.48 C124.91 157.52, 150.38 125.48, 225.46 38.31 M97.52 185.48 C137.64 139.79, 178.78 91.7, 225.46 38.31 M103.17 185.08 C144.1 137.43, 185.53 93.41, 225.19 44.71 M103.17 185.08 C148.85 134.21, 191.96 83.64, 225.19 44.71 M108.15 185.44 C142.32 145.96, 177.72 103.49, 225.59 50.35 M108.15 185.44 C135.28 154.46, 162.85 121.61, 225.59 50.35 M113.8 185.05 C148.47 143.03, 181.61 105.79, 225.33 56.75 M113.8 185.05 C151.9 139.56, 189.35 95.02, 225.33 56.75 M118.78 185.41 C159.69 138.13, 199.71 94.83, 225.72 62.39 M118.78 185.41 C144.42 157.82, 169.5 128.72, 225.72 62.39 M124.43 185.01 C149.44 159.13, 171.64 130.43, 225.46 68.79 M124.43 185.01 C152.73 150.99, 183.32 114.97, 225.46 68.79 M129.41 185.37 C161.8 150.73, 192.99 115.64, 225.2 75.19 M129.41 185.37 C157.11 152.61, 185.14 121.22, 225.2 75.19 M135.06 184.98 C160.95 155.3, 181.61 128.42, 225.59 80.83 M135.06 184.98 C158.92 158.87, 181.33 134.42, 225.59 80.83 M140.04 185.34 C166.4 154.79, 192.07 127.02, 225.33 87.23 M140.04 185.34 C169.1 152.27, 198.52 117.98, 225.33 87.23 M145.69 184.94 C175.31 149.28, 207.77 116.06, 225.73 92.87 M145.69 184.94 C162.41 164.07, 181.25 143.1, 225.73 92.87 M150.67 185.3 C174.09 158.76, 193.2 136.2, 225.47 99.27 M150.67 185.3 C175.68 158.28, 200.23 130.7, 225.47 99.27 M155.66 185.66 C174.73 164.77, 193.71 140.77, 225.2 105.67 M155.66 185.66 C178.39 157.28, 203.74 130.26, 225.2 105.67 M161.3 185.27 C180.74 160.3, 202.36 136.07, 225.6 111.31 M161.3 185.27 C182.25 160.18, 206.29 134.2, 225.6 111.31 M166.29 185.63 C186.52 162.81, 204.65 139.36, 225.34 117.71 M166.29 185.63 C185.37 164.28, 202.16 143.27, 225.34 117.71 M171.93 185.24 C187.15 168.22, 199.97 155.14, 225.73 123.35 M171.93 185.24 C190.53 163.09, 210.77 141.08, 225.73 123.35 M176.92 185.6 C190.02 172.11, 197.8 159.38, 225.47 129.75 M176.92 185.6 C192.31 167.66, 206.94 150.21, 225.47 129.75 M182.56 185.2 C200.33 167.57, 215.54 147.11, 225.21 136.15 M182.56 185.2 C192.04 175.9, 199.9 165.37, 225.21 136.15 M187.55 185.56 C197.62 175.01, 207.78 160.07, 225.6 141.79 M187.55 185.56 C201.08 170.28, 213.74 153.6, 225.6 141.79 M193.85 184.41 C206.18 170.2, 219.45 155.5, 225.34 148.19 M193.85 184.41 C201.32 175.26, 209.26 167.53, 225.34 148.19 M200.15 183.26 C210.23 171.97, 218.11 162.43, 227.05 152.32 M200.15 183.26 C208.29 174.37, 214.91 165.7, 227.05 152.32 M206.45 182.11 C210.94 174.76, 219.78 170.45, 225.47 160.23 M206.45 182.11 C211.21 175.63, 217.21 168.99, 225.47 160.23" stroke="#a5d8ff" stroke-width="0.5" fill="none"></path><path d="M32 0 M32 0 C84.57 -1.15, 137.97 -2.33, 193.34 0 M32 0 C93.07 -0.54, 153.19 -1.64, 193.34 0 M193.34 0 C214.57 1.08, 224.85 12.62, 225.34 32 M193.34 0 C213.1 2.1, 226.02 9.72, 225.34 32 M225.34 32 C226.14 62.16, 222.77 90.69, 225.34 151.48 M225.34 32 C226.6 57.54, 225.71 85.29, 225.34 151.48 M225.34 151.48 C226.38 173.76, 216.59 181.94, 193.34 183.48 M225.34 151.48 C225.11 172.85, 212.59 183.63, 193.34 183.48 M193.34 183.48 C137.39 184.64, 80.82 186.12, 32 183.48 M193.34 183.48 C155.82 184.37, 120.59 184.63, 32 183.48 M32 183.48 C8.95 181.59, -0.18 173.4, 0 151.48 M32 183.48 C10.87 181.86, 1.26 174.54, 0 151.48 M0 151.48 C-1.36 109.81, 0.64 68.51, 0 32 M0 151.48 C-1.27 105.88, -0.9 59.02, 0 32 M0 32 C-1.52 11.88, 9.61 -0.97, 32 0 M0 32 C1.19 11.31, 11.59 -1.12, 32 0" stroke="#1971c2" stroke-width="1" fill="none"></path></g><g stroke-linecap="round"><g transform="translate(774.25146484375 284.7750244140625) rotate(0 1.5048999611288991 -59.80474417246879)"><path d="M-0.38 0.98 C-0.06 -18.91, 0.62 -98.82, 1.27 -118.9 M1.62 0.45 C2.36 -19.81, 3.11 -100.83, 3.39 -120.59" stroke="#f08c00" stroke-width="1" fill="none"></path></g><g transform="translate(774.25146484375 284.7750244140625) rotate(0 1.5048999611288991 -59.80474417246879)"><path d="M14.95 -94.15 C12.19 -97.35, 8.72 -105.55, 3.91 -118.65 M13.84 -91.79 C11.61 -98.87, 8.25 -104.28, 3.72 -120.89" stroke="#f08c00" stroke-width="1" fill="none"></path></g><g transform="translate(774.25146484375 284.7750244140625) rotate(0 1.5048999611288991 -59.80474417246879)"><path d="M-5.57 -94.4 C-3.33 -97.47, -1.81 -105.61, 3.91 -118.65 M-6.68 -92.03 C-4.49 -98.95, -3.44 -104.3, 3.72 -120.89" stroke="#f08c00" stroke-width="1" fill="none"></path></g></g><mask></mask><g transform="translate(674.7984008789062 278.2984619140625) rotate(0 30.613525390625 79.05934528043804)"><text x="0" y="0" font-family="Virgil, Segoe UI Emoji" font-size="25.29899048974018px" fill="#f08c00" text-anchor="start" style="white-space: pre;" direction="ltr" dominant-baseline="text-before-edge">&lt;ul&gt;</text><text x="0" y="31.623738112175225" font-family="Virgil, Segoe UI Emoji" font-size="25.29899048974018px" fill="#f08c00" text-anchor="start" style="white-space: pre;" direction="ltr" dominant-baseline="text-before-edge"></text><text x="0" y="63.24747622435045" font-family="Virgil, Segoe UI Emoji" font-size="25.29899048974018px" fill="#f08c00" text-anchor="start" style="white-space: pre;" direction="ltr" dominant-baseline="text-before-edge"></text><text x="0" y="94.87121433652567" font-family="Virgil, Segoe UI Emoji" font-size="25.29899048974018px" fill="#f08c00" text-anchor="start" style="white-space: pre;" direction="ltr" dominant-baseline="text-before-edge"></text><text x="0" y="126.4949524487009" font-family="Virgil, Segoe UI Emoji" font-size="25.29899048974018px" fill="#f08c00" text-anchor="start" style="white-space: pre;" direction="ltr" dominant-baseline="text-before-edge">&lt;/ul&gt;</text></g><g transform="translate(691.2279663085938 318.4908447265625) rotate(0 82.18993377685547 37.5)"><text x="0" y="0" font-family="Virgil, Segoe UI Emoji" font-size="20px" fill="#f08c00" text-anchor="start" style="white-space: pre;" direction="ltr" dominant-baseline="text-before-edge">&lt;li&gt; list &lt;/li&gt;</text><text x="0" y="25" font-family="Virgil, Segoe UI Emoji" font-size="20px" fill="#f08c00" text-anchor="start" style="white-space: pre;" direction="ltr" dominant-baseline="text-before-edge">&lt;li&gt; of &lt;/li&gt;</text><text x="0" y="50" font-family="Virgil, Segoe UI Emoji" font-size="20px" fill="#f08c00" text-anchor="start" style="white-space: pre;" direction="ltr" dominant-baseline="text-before-edge">&lt;li&gt; records &lt;/li&gt;</text></g><g stroke-linecap="round"><g transform="translate(561.0625610351562 300.57611083984375) rotate(0 34.02339895777402 3.5089795655757143)"><path d="M-0.84 -0.41 C10.78 0.88, 57.53 6.08, 68.89 7.62 M0.91 -1.67 C12.55 -0.24, 57.6 6.69, 68.5 8.69" stroke="#f08c00" stroke-width="1" fill="none"></path></g><g transform="translate(561.0625610351562 300.57611083984375) rotate(0 34.02339895777402 3.5089795655757143)"><path d="M38.33 15.96 C44.27 12.27, 53.01 13.13, 69.5 7.28 M39.59 15.17 C45.43 12.65, 52.83 12.48, 67.68 8.44" stroke="#f08c00" stroke-width="1" fill="none"></path></g><g transform="translate(561.0625610351562 300.57611083984375) rotate(0 34.02339895777402 3.5089795655757143)"><path d="M41.68 -4.29 C46.83 -3.37, 54.81 2.11, 69.5 7.28 M42.94 -5.07 C47.99 -2.8, 54.6 1.83, 67.68 8.44" stroke="#f08c00" stroke-width="1" fill="none"></path></g></g><mask></mask><g transform="translate(632.0498046875 454.01788330078125) rotate(0 129.11988830566406 12.5)"><text x="0" y="0" font-family="Virgil, Segoe UI Emoji" font-size="20px" fill="#1971c2" text-anchor="start" style="white-space: pre;" direction="ltr" dominant-baseline="text-before-edge">Rendered author template</text></g></svg>